<?xml version="1.0" encoding="UTF-8"?>
<svg width="31px" height="22px" viewBox="0 0 31 22" version="1.1" xmlns="http://www.w3.org/2000/svg" xmlns:xlink="http://www.w3.org/1999/xlink">
    <title>EU</title>
    <defs>
        <rect id="path-1" x="0" y="0" width="31" height="22" rx="2"></rect>
    </defs>
    <g id="Relize-#1" stroke="none" stroke-width="1" fill="none" fill-rule="evenodd">
        <g id="UI-01.-Главная" transform="translate(-200.000000, -485.000000)">
            <g id="Group-7" transform="translate(14.000000, 441.000000)">
                <g id="EU" transform="translate(186.000000, 44.000000)">
                    <mask id="mask-2" fill="white">
                        <use xlink:href="#path-1"></use>
                    </mask>
                    <use id="Mask" fill="#FFFFFF" xlink:href="#path-1"></use>
                    <rect id="Mask-Copy" fill="#043CAE" mask="url(#mask-2)" x="0" y="0" width="31" height="22"></rect>
                    <path d="M16.5531444,16.8937112 L16.2446856,17.9468556 L16.5531444,19 L15.5,18.6915411 L14.4468556,19 L14.7553144,17.9468556 L14.4468556,16.8937112 L15.5,17.20217 L16.5531444,16.8937112 Z M12.8297166,15.8960217 L12.5212578,16.9491661 L12.8297166,18.0023105 L11.7765722,17.6938517 L10.7234278,18.0023105 L11.0318866,16.9491661 L10.7234278,15.8960217 L11.7765722,16.2044806 L12.8297166,15.8960217 Z M20.2765722,15.8960217 L19.9681134,16.9491661 L20.2765722,18.0023105 L19.2234278,17.6938517 L18.1702834,18.0023105 L18.4787422,16.9491661 L18.1702834,15.8960217 L19.2234278,16.2044806 L20.2765722,15.8960217 Z M23.0023105,13.1702834 L22.6938517,14.2234278 L23.0023105,15.2765722 L21.9491661,14.9681134 L20.8960217,15.2765722 L21.2044806,14.2234278 L20.8960217,13.1702834 L21.9491661,13.4787422 L23.0023105,13.1702834 Z M10.1039783,13.1702834 L9.79551944,14.2234278 L10.1039783,15.2765722 L9.05083389,14.9681134 L7.99768947,15.2765722 L8.30614833,14.2234278 L7.99768947,13.1702834 L9.05083389,13.4787422 L10.1039783,13.1702834 Z M24,9.44685558 L23.6915411,10.5 L24,11.5531444 L22.9468556,11.2446856 L21.8937112,11.5531444 L22.20217,10.5 L21.8937112,9.44685558 L22.9468556,9.75531444 L24,9.44685558 Z M9.10628883,9.44685558 L8.79782997,10.5 L9.10628883,11.5531444 L8.05314442,11.2446856 L7,11.5531444 L7.30845886,10.5 L7,9.44685558 L8.05314442,9.75531444 L9.10628883,9.44685558 Z M23.0023105,5.72342779 L22.6938517,6.77657221 L23.0023105,7.82971662 L21.9491661,7.52125777 L20.8960217,7.82971662 L21.2044806,6.77657221 L20.8960217,5.72342779 L21.9491661,6.03188665 L23.0023105,5.72342779 Z M10.1039783,5.72342779 L9.79551944,6.77657221 L10.1039783,7.82971662 L9.05083389,7.52125777 L7.99768947,7.82971662 L8.30614833,6.77657221 L7.99768947,5.72342779 L9.05083389,6.03188665 L10.1039783,5.72342779 Z M20.2765722,2.99768947 L19.9681134,4.05083389 L20.2765722,5.1039783 L19.2234278,4.79551944 L18.1702834,5.1039783 L18.4787422,4.05083389 L18.1702834,2.99768947 L19.2234278,3.30614833 L20.2765722,2.99768947 Z M12.8297166,2.99768947 L12.5212578,4.05083389 L12.8297166,5.1039783 L11.7765722,4.79551944 L10.7234278,5.1039783 L11.0318866,4.05083389 L10.7234278,2.99768947 L11.7765722,3.30614833 L12.8297166,2.99768947 Z M16.5531444,2 L16.2446856,3.05314442 L16.5531444,4.10628883 L15.5,3.79782997 L14.4468556,4.10628883 L14.7553144,3.05314442 L14.4468556,2 L15.5,2.30845886 L16.5531444,2 Z" id="Star-2" fill="#FFD429" mask="url(#mask-2)"></path>
                </g>
            </g>
        </g>
    </g>
</svg>