<?xml version="1.0" encoding="UTF-8"?>
<svg width="100px" height="100px" viewBox="0 0 100 100" version="1.1" xmlns="http://www.w3.org/2000/svg" xmlns:xlink="http://www.w3.org/1999/xlink">
    <title>Group 2</title>
    <defs>
        <radialGradient cx="34.6631516%" cy="4.44839546%" fx="34.6631516%" fy="4.44839546%" r="69.338955%" gradientTransform="translate(0.346632,0.044484),rotate(62.676535),scale(1.000000,1.462700),translate(-0.346632,-0.044484)" id="radialGradient-1">
            <stop stop-color="#3D88EC" offset="0%"></stop>
            <stop stop-color="#266AC2" offset="100%"></stop>
        </radialGradient>
        <circle id="path-2" cx="50" cy="50" r="43.5546875"></circle>
        <filter x="-2.9%" y="-2.9%" width="105.7%" height="105.7%" filterUnits="objectBoundingBox" id="filter-3">
            <feGaussianBlur stdDeviation="1.5" in="SourceAlpha" result="shadowBlurInner1"></feGaussianBlur>
            <feOffset dx="1" dy="2" in="shadowBlurInner1" result="shadowOffsetInner1"></feOffset>
            <feComposite in="shadowOffsetInner1" in2="SourceAlpha" operator="arithmetic" k2="-1" k3="1" result="shadowInnerInner1"></feComposite>
            <feColorMatrix values="0 0 0 0 0   0 0 0 0 0   0 0 0 0 0  0 0 0 0.28944493 0" type="matrix" in="shadowInnerInner1"></feColorMatrix>
        </filter>
        <linearGradient x1="46.7243357%" y1="61.7951554%" x2="50%" y2="101.255943%" id="linearGradient-4">
            <stop stop-color="#3A86E8" offset="0%"></stop>
            <stop stop-color="#1060C8" offset="100%"></stop>
        </linearGradient>
        <path d="M27.5776358,1.00527137 C34.4474661,1.00527137 39.5033735,2.87950108 42.7456243,6.62796789 C44.3959292,8.7028398 45.5436546,11.1257476 46.1003293,13.7099113 C46.6570041,16.294075 46.607972,18.9704793 45.9566971,21.5328445 L44.0433774,32.366029 C43.278849,37.8616243 40.4032733,42.8520232 36.0170279,46.295919 C31.0799702,49.7297743 25.1295192,51.4340192 19.1062928,51.1391452 C12.227562,51.1391452 7.17157471,49.2982965 3.93830423,45.6168633 C2.28578758,43.5646354 1.13577318,41.1601969 0.578610747,38.5927321 C0.021447517,36.0255316 0.0723159729,33.3647958 0.72721813,30.8203186 L2.64053784,19.987134 L2.64853221,19.9818495 C3.37675289,14.4383769 6.25728503,9.39529167 10.6775599,5.92513201 C15.5989753,2.46034667 21.548307,0.728414279 27.5776358,1.00527137 Z M26.9395208,14.789446 C25.9802804,14.3483041 23.0370988,14.2589029 22.0129331,14.6688732 C21.1808096,14.8864953 20.3991646,15.2684348 19.7126235,15.7928484 C19.026111,16.3172331 18.4481785,16.9738075 18.0119454,17.7249977 C17.5756837,18.4761879 17.2896582,19.3072772 17.1702002,20.1707258 L17.1702002,20.1707258 L14.7547723,33.986484 L14.7199323,34.2292982 C14.2482545,37.8314908 16.0681255,39.6327227 20.179492,39.6327227 C24.4735574,39.6327227 26.9138247,37.7505466 27.49998,33.986484 L27.49998,33.986484 L29.9068424,20.1707258 L29.9771798,19.8994215 C30.1215382,19.2624245 30.1274715,18.5999619 29.9930669,17.9584374 C29.8394617,17.2252665 29.5074118,16.542706 29.0274668,15.9729834 C28.4164721,15.44069 27.7064048,15.0382398 26.9395208,14.789446 Z M27.3593914,3.70346799 C21.6611937,3.70346799 16.1812724,5.07697268 11.5854859,8.37930343 C7.45889186,11.696398 5.83814249,15.5446484 4.48257151,21.8155813 L4.48257151,21.8155813 L2.30809129,32.1561407 C3.4075656,26.8300539 5.75795032,21.8519936 9.15954207,17.6449606 C17.1630381,7.69405326 29.5522752,3.89695039 39.761897,7.3527718 C36.1642964,4.72555221 31.8274411,3.70346799 27.3593914,3.70346799 Z" id="path-5"></path>
        <filter x="-9.7%" y="-7.0%" width="123.8%" height="121.9%" filterUnits="objectBoundingBox" id="filter-6">
            <feOffset dx="1" dy="2" in="SourceAlpha" result="shadowOffsetOuter1"></feOffset>
            <feGaussianBlur stdDeviation="1.5" in="shadowOffsetOuter1" result="shadowBlurOuter1"></feGaussianBlur>
            <feColorMatrix values="0 0 0 0 0   0 0 0 0 0   0 0 0 0 0  0 0 0 0.15 0" type="matrix" in="shadowBlurOuter1"></feColorMatrix>
        </filter>
        <linearGradient x1="50%" y1="52.811892%" x2="71.1075714%" y2="90.0580618%" id="linearGradient-7">
            <stop stop-color="#F8FBFF" offset="0%"></stop>
            <stop stop-color="#DEE9F8" offset="100%"></stop>
        </linearGradient>
        <path d="M27.3823233,0.0287088713 C34.2521536,0.0287088713 39.308061,1.90293858 42.5503118,5.65140539 C44.2006167,7.7262773 45.3483421,10.1491851 45.9050168,12.7333488 C46.4616916,15.3175125 46.4126595,17.9939168 45.7613846,20.556282 L43.8480649,31.3894665 C43.0835365,36.8850618 40.2079608,41.8754607 35.8217154,45.3193565 C30.8846577,48.7532118 24.9342067,50.4574567 18.9109803,50.1625827 C12.0322495,50.1625827 6.97626221,48.321734 3.74299173,44.6403008 C2.09047508,42.5880729 0.940460679,40.1836344 0.383298247,37.6161696 C-0.173864983,35.0489691 -0.122996527,32.3882333 0.53190563,29.8437561 L2.44522534,19.0105715 L2.45321971,19.005287 C3.18144039,13.4618144 6.06197253,8.41872917 10.4822474,4.94856951 C15.4036628,1.48378417 21.3529945,-0.248148221 27.3823233,0.0287088713 Z M26.7442083,13.8128835 C25.9770387,13.5640608 22.6497155,13.4746596 21.8176206,13.6923107 C20.9854971,13.9099328 20.2038521,14.2918723 19.517311,14.8162859 C18.8307985,15.3406706 18.252866,15.997245 17.8166329,16.7484352 C17.3803712,17.4996254 17.0943457,18.3307147 16.9748877,19.1941633 L16.9748877,19.1941633 L14.5594598,33.0099215 L14.5246198,33.2527357 C14.052942,36.8549283 15.872813,38.6561602 19.9841795,38.6561602 C24.2782449,38.6561602 26.7185122,36.7739841 27.3046675,33.0099215 L27.3046675,33.0099215 L29.7115299,19.1941633 L29.7818673,18.922859 C29.9262257,18.285862 29.932159,17.6233994 29.7977544,16.9818749 C29.6441492,16.248704 29.3120993,15.5661435 28.8321543,14.9964209 C28.2211596,14.4641275 27.5110923,14.0616773 26.7442083,13.8128835 Z M27.1640789,2.72689543 C21.3811938,2.72689543 15.9859599,4.10041018 11.3901734,7.40274093 C7.26357936,10.7198355 4.57703191,15.5411482 3.90311742,20.8390188 L3.90311742,20.8390188 L2.11277879,31.1795782 C3.2122531,25.8534914 5.56263782,20.8754311 8.96422957,16.6683981 C16.9677256,6.71749076 29.3569627,2.92038789 39.5665845,6.3762093 C35.9689839,3.74898971 31.5645099,2.72609211 27.1640789,2.72689543 Z" id="path-8"></path>
        <filter x="-9.7%" y="-7.0%" width="123.8%" height="121.9%" filterUnits="objectBoundingBox" id="filter-9">
            <feOffset dx="1" dy="2" in="SourceAlpha" result="shadowOffsetOuter1"></feOffset>
            <feGaussianBlur stdDeviation="1.5" in="shadowOffsetOuter1" result="shadowBlurOuter1"></feGaussianBlur>
            <feColorMatrix values="0 0 0 0 0   0 0 0 0 0   0 0 0 0 0  0 0 0 0.15 0" type="matrix" in="shadowBlurOuter1"></feColorMatrix>
        </filter>
        <linearGradient x1="41.303711%" y1="17.0797414%" x2="78.53276%" y2="71.7852011%" id="linearGradient-10">
            <stop stop-color="#9471EB" offset="0%"></stop>
            <stop stop-color="#07244A" stop-opacity="0.0950338724" offset="100%"></stop>
        </linearGradient>
    </defs>
    <g id="Relize-#1" stroke="none" stroke-width="1" fill="none" fill-rule="evenodd">
        <g id="UI-00.-Экран-загрузки" transform="translate(-138.000000, -250.000000)">
            <g id="Group-2" transform="translate(138.000000, 250.000000)">
                <rect id="Background" fill="#FFFFFF" x="0" y="0" width="100" height="100"></rect>
                <g id="Oval">
                    <use fill="url(#radialGradient-1)" fill-rule="evenodd" xlink:href="#path-2"></use>
                    <use fill="black" fill-opacity="1" filter="url(#filter-3)" xlink:href="#path-2"></use>
                </g>
                <g id="Group" transform="translate(26.757812, 24.414062)">
                    <g id="Combined-Shape">
                        <use fill="black" fill-opacity="1" filter="url(#filter-6)" xlink:href="#path-5"></use>
                        <use fill="url(#linearGradient-4)" fill-rule="evenodd" xlink:href="#path-5"></use>
                    </g>
                    <g id="Combined-Shape">
                        <use fill="black" fill-opacity="1" filter="url(#filter-9)" xlink:href="#path-8"></use>
                        <use fill="url(#linearGradient-7)" fill-rule="evenodd" xlink:href="#path-8"></use>
                    </g>
                    <path d="M27.3823233,0.0287088713 C34.2521536,0.0287088713 39.308061,1.90293858 42.5503118,5.65140539 C44.2006167,7.7262773 45.3483421,10.1491851 45.9050168,12.7333488 C46.4616916,15.3175125 46.4126595,17.9939168 45.7613846,20.556282 L43.8480649,31.3894665 C43.0835365,36.8850618 40.2079608,41.8754607 35.8217154,45.3193565 C30.8846577,48.7532118 24.9342067,50.4574567 18.9109803,50.1625827 C12.0322495,50.1625827 6.97626221,48.321734 3.74299173,44.6403008 C2.09047508,42.5880729 0.940460679,40.1836344 0.383298247,37.6161696 C-0.173864983,35.0489691 -0.122996527,32.3882333 0.53190563,29.8437561 L2.44522534,19.0105715 L2.45321971,19.005287 C3.18144039,13.4618144 6.06197253,8.41872917 10.4822474,4.94856951 C15.4036628,1.48378417 21.3529945,-0.248148221 27.3823233,0.0287088713 Z M26.7442083,13.8128835 C25.9770387,13.5640608 22.6497155,13.4746596 21.8176206,13.6923107 C20.9854971,13.9099328 20.2038521,14.2918723 19.517311,14.8162859 C18.8307985,15.3406706 18.252866,15.997245 17.8166329,16.7484352 C17.3803712,17.4996254 17.0943457,18.3307147 16.9748877,19.1941633 L16.9748877,19.1941633 L14.5594598,33.0099215 L14.5246198,33.2527357 C14.052942,36.8549283 15.872813,38.6561602 19.9841795,38.6561602 C24.2782449,38.6561602 26.7185122,36.7739841 27.3046675,33.0099215 L27.3046675,33.0099215 L29.7115299,19.1941633 L29.7818673,18.922859 C29.9262257,18.285862 29.932159,17.6233994 29.7977544,16.9818749 C29.6441492,16.248704 29.3120993,15.5661435 28.8321543,14.9964209 C28.2211596,14.4641275 27.5110923,14.0616773 26.7442083,13.8128835 Z M27.1640789,2.72690549 C21.4352137,2.69246887 15.9859599,4.10041018 11.3901734,7.40274093 C7.26357936,10.7198355 4.57703191,15.5411482 3.90311742,20.8390188 L3.90311742,20.8390188 L2.11277879,31.1795782 C3.2122531,25.8534914 5.56263782,20.8754311 8.96422957,16.6683981 C16.9677256,6.71749076 29.3569627,2.92038789 39.5665845,6.3762093 C35.9689839,3.74898971 31.5982724,2.69246887 27.1640789,2.72690549 Z" id="Combined-Shape" fill-opacity="0.6" fill="url(#linearGradient-10)" style="mix-blend-mode: overlay;"></path>
                </g>
            </g>
        </g>
    </g>
</svg>