<?xml version="1.0" encoding="UTF-8"?>
<svg width="24px" height="24px" viewBox="0 0 24 24" version="1.1" xmlns="http://www.w3.org/2000/svg" xmlns:xlink="http://www.w3.org/1999/xlink">
    <title>Icons/Tabs/Moon</title>
    <g id="Icons/Tabs/Moon" stroke="none" stroke-width="1" fill="none" fill-rule="evenodd">
        <rect id="tab-item__iconsizer" x="0" y="0" width="24" height="24"></rect>
        <g id="702471" transform="translate(6.000000, 6.000000)" stroke="#748595" stroke-linecap="round" stroke-linejoin="round" stroke-width="2">
            <path d="M12.6608411,7.36363823 C12.5280931,7.33045123 12.3953451,7.36363823 12.2791906,7.44660573 C11.8477596,7.81166275 11.3499546,8.11034577 10.802369,8.30946778 C10.2879705,8.50858979 9.72379147,8.60815079 9.12642544,8.60815079 C7.78235188,8.60815079 6.55443282,8.06056526 5.67497728,7.18110972 C4.79552173,6.30165418 4.24793621,5.07373512 4.24793621,3.72966155 C4.24793621,3.16548253 4.34749721,2.617897 4.51343222,2.12009197 C4.69596073,1.58909995 4.96145674,1.10788843 5.30992026,0.693050905 C5.45926177,0.510522397 5.42607476,0.245026384 5.24354625,0.0956848764 C5.12739175,0.0127173723 4.99464374,-0.0204696293 4.86189574,0.0127173723 C3.45144817,0.394367891 2.22352911,1.24063643 1.34407357,2.36899449 C0.497805024,3.48075904 0,4.85801961 0,6.35143468 C0,8.16012627 0.730114035,9.80288285 1.92484609,10.9976149 C3.11957815,12.192347 4.74574123,12.922461 6.57102632,12.922461 C8.09762839,12.922461 9.50807596,12.391469 10.636434,11.5120134 C11.7813856,10.6159644 12.6110606,9.33826483 12.9595241,7.87803675 C13.0258981,7.64572774 12.8931501,7.41341873 12.6608411,7.36363823 Z" id="Path"></path>
        </g>
    </g>
</svg>