<?xml version="1.0" encoding="UTF-8"?>
<svg width="20px" height="19px" viewBox="0 0 20 19" version="1.1" xmlns="http://www.w3.org/2000/svg" xmlns:xlink="http://www.w3.org/1999/xlink">
    <title>Combined Shape</title>
    <g id="Relize-#1" stroke="none" stroke-width="1" fill="none" fill-rule="evenodd">
        <g id="UI-03.-Помощь-:-Пресс-служба" transform="translate(-18.000000, -221.000000)" fill="#1262CB">
            <g id="Icons/Tabs/Arrow-down" transform="translate(16.000000, 218.000000)">
                <path d="M21.2073828,3 C21.6451953,3 22,3.36141326 22,3.80738043 L22,3.80738043 L22,18.3668875 C22,20.3553966 20.4116406,21.9731019 18.4597266,21.9731019 L18.4597266,21.9731019 L5.38257813,21.9731019 C5.25285156,21.9908483 5.12019531,22 4.98546875,22 C3.33921875,22 2,20.635837 2,18.9589241 L2,18.9589241 L2,14.4645952 C2,12.7879608 3.33921875,11.4235193 4.98546875,11.4235193 L4.98546875,11.4235193 L6.38570313,11.4235193 L6.38570313,3.80738043 C6.38570313,3.36141326 6.74054687,3 7.17832031,3 L7.17832031,3 Z M6.38578125,13.0382404 L4.98550781,13.0382404 C4.21351562,13.0382404 3.58523437,13.6782239 3.58523437,14.4645952 L3.58523437,14.4645952 L3.58523437,18.9588843 C3.58523437,19.7452556 4.21324219,20.3852391 4.98550781,20.3852391 L4.98550781,20.3852391 L4.98550781,20.358341 L5.2565625,20.358341 C5.89933594,20.229461 6.38574219,19.6508337 6.38574219,18.9589241 L6.38578125,18.9589241 L6.38578125,13.0382404 Z M20.4148047,4.61472107 L7.9709375,4.61472107 L7.9709375,18.9589241 C7.9709375,19.4632235 7.84992187,19.9393118 7.63566406,20.358341 L7.63566406,20.358341 L18.4597266,20.358341 C19.5196875,20.358341 20.4148047,19.4463127 20.4148047,18.3668477 L20.4148047,18.3668477 L20.4148047,4.61472107 Z M16.153216,15.4817927 C16.6209065,15.4817927 17,15.9294296 17,16.4817927 C17,17.0341558 16.6211987,17.4817927 16.153216,17.4817927 L16.153216,17.4817927 L10.846784,17.4817927 C10.3790517,17.4817927 10,17.0341066 10,16.4817927 C10,15.9294296 10.3790935,15.4817927 10.846784,15.4817927 L10.846784,15.4817927 Z M17.2499884,11.4817927 C17.6642302,11.4817927 18,11.9294296 18,12.4817927 C18,13.0341558 17.6642302,13.4817927 17.2499884,13.4817927 L17.2499884,13.4817927 L10.7500116,13.4817927 C10.3357328,13.4817927 10,13.0341066 10,12.4817927 C10,11.9294296 10.3357698,11.4817927 10.7500116,11.4817927 L10.7500116,11.4817927 Z M16.153216,7.48179272 C16.6209065,7.48179272 17,7.9294296 17,8.48179272 C17,9.03415583 16.6211987,9.48179272 16.153216,9.48179272 L16.153216,9.48179272 L10.846784,9.48179272 C10.3790517,9.48179272 10,9.03410655 10,8.48179272 C10,7.9294296 10.3790935,7.48179272 10.846784,7.48179272 L10.846784,7.48179272 Z" id="Combined-Shape"></path>
            </g>
        </g>
    </g>
</svg>