<?xml version="1.0" encoding="UTF-8"?>
<svg width="31px" height="31px" viewBox="0 0 31 31" version="1.1" xmlns="http://www.w3.org/2000/svg" xmlns:xlink="http://www.w3.org/1999/xlink">
    <title>phone-outgoing</title>
    <defs>
        <radialGradient cx="50%" cy="68.8232422%" fx="50%" fy="68.8232422%" r="100%" gradientTransform="translate(0.500000,0.688232),rotate(90.000000),scale(1.000000,1.057592),translate(-0.500000,-0.688232)" id="radialGradient-1">
            <stop stop-color="#299BE7" offset="0%"></stop>
            <stop stop-color="#1262CB" offset="100%"></stop>
        </radialGradient>
    </defs>
    <g id="Relize-#1" stroke="none" stroke-width="1" fill="none" fill-rule="evenodd" stroke-linecap="round" stroke-linejoin="round">
        <g id="UI-00.-Обратиться-в-поддержку" transform="translate(-32.000000, -383.000000)" stroke-width="3">
            <g id="Group" transform="translate(16.000000, 362.000000)">
                <g id="phone-outgoing" transform="translate(18.000000, 23.000000)">
                    <polyline id="Shape" stroke="#2085DC" points="27 7.5 27 0 19.5 0"></polyline>
                    <line x1="18" y1="9" x2="27" y2="0" id="Shape" stroke="#2085DC"></line>
                    <path d="M25.4991993,20.5916418 L25.4991993,24.4304185 C25.50213,25.1510146 25.2005241,25.8394521 24.6684776,26.3266012 C24.1364312,26.8137503 23.4232532,27.054463 22.7041516,26.9896029 C18.7588186,26.5617595 14.9690484,25.216273 11.6393527,23.0612548 C8.54150153,21.0966506 5.91506448,18.4754162 3.94656093,15.3837014 C1.77972976,12.0455063 0.431266627,8.24484946 0.0104157808,4.28963686 C-0.0543662316,3.57418144 0.185134479,2.86449412 0.670413443,2.33393504 C1.15569241,1.80337597 1.84206213,1.50080232 2.5618584,1.5 L6.40825431,1.5 C7.6953405,1.48748324 8.79237979,2.42906815 8.97251824,3.70102443 C9.13486566,4.929518 9.43594415,6.13573896 9.87001062,7.29667858 C10.2222572,8.23190059 9.99696101,9.28619659 9.29305124,9.99661818 L7.66474363,11.6217003 C9.48992961,14.8252181 12.1476593,17.4776831 15.3575354,19.2992536 L16.985843,17.6741715 C17.6976747,16.9716561 18.7540633,16.7468062 19.6911415,17.098355 C20.8543854,17.5315617 22.0630004,17.8320438 23.2939323,17.9940696 C24.5831964,18.1755929 25.5314962,19.2925903 25.4991993,20.5916418 Z" id="Shape" stroke="url(#radialGradient-1)"></path>
                </g>
            </g>
        </g>
    </g>
</svg>