<?xml version="1.0" encoding="UTF-8"?>
<svg width="24px" height="24px" viewBox="0 0 24 24" version="1.1" xmlns="http://www.w3.org/2000/svg" xmlns:xlink="http://www.w3.org/1999/xlink">
    <title>Icons/Tabs/Phone</title>
    <g id="Icons/Tabs/Phone" stroke="none" stroke-width="1" fill="none" fill-rule="evenodd">
        <rect id="tab-item__iconsizer" x="0" y="0" width="24" height="24"></rect>
        <g id="icon-g" transform="translate(4.000000, 5.000000)" stroke="#748595" stroke-linecap="round" stroke-linejoin="round" stroke-width="2">
            <path d="M15,11.19 L15,13.44 C15.0017144,13.8623588 14.825286,14.2658688 14.5140584,14.5513987 C14.2028308,14.8369285 13.785648,14.9780161 13.365,14.94 C11.0571254,14.6892306 8.84024937,13.9006084 6.8925,12.6375 C5.08037109,11.4859979 3.54400211,9.94962891 2.3925,8.1375 C1.12498354,6.18090299 0.336182251,3.95324592 0.09,1.635 C0.0521049077,1.21565425 0.192204006,0.799689318 0.476074335,0.488715792 C0.759944663,0.177742266 1.16144568,0.000396517679 1.5825,-7.37392072e-05 L3.8325,-7.37392072e-05 C4.58539804,-0.00741011787 5.22712563,0.544475612 5.3325,1.29 C5.42746726,2.01004984 5.60358709,2.71704516 5.8575,3.3975 C6.06355125,3.94565627 5.9317613,4.5636047 5.52,4.98 L4.5675,5.9325 C5.6351666,7.81015937 7.18984063,9.3648334 9.0675,10.4325 L10.02,9.48 C10.4363953,9.0682387 11.0543437,8.93644875 11.6025,9.1425 C12.2829548,9.39641291 12.9899502,9.57253274 13.71,9.6675 C14.464172,9.77389524 15.0188925,10.4285944 15,11.19 Z" id="Shape"></path>
        </g>
    </g>
</svg>