<?xml version="1.0" encoding="UTF-8"?>
<svg width="38px" height="38px" viewBox="0 0 38 38" version="1.1" xmlns="http://www.w3.org/2000/svg" xmlns:xlink="http://www.w3.org/1999/xlink">
    <title>icons8-telegram-app</title>
    <defs>
        <linearGradient x1="14.645%" y1="14.645%" x2="85.355%" y2="85.355%" id="linearGradient-1">
            <stop stop-color="#33BEF0" offset="0%"></stop>
            <stop stop-color="#0A85D9" offset="100%"></stop>
        </linearGradient>
    </defs>
    <g id="Relize-#1" stroke="none" stroke-width="1" fill="none" fill-rule="evenodd">
        <g id="UI-00.-Обратиться-в-поддержку" transform="translate(-29.000000, -514.000000)" fill-rule="nonzero">
            <g id="Group" transform="translate(16.000000, 362.000000)">
                <g id="icons8-telegram-app" transform="translate(13.000000, 152.000000)">
                    <path d="M38,19 C38,29.49275 29.49275,38 19,38 C8.50725,38 0,29.49275 0,19 C0,8.50725 8.50725,0 19,0 C29.49275,0 38,8.50725 38,19 Z" id="Path" fill="url(#linearGradient-1)"></path>
                    <path d="M5.81305,18.4927 C13.5603,14.98245 22.6594,11.1739 24.06065,10.6229 C27.15005,9.40785 28.49715,10.6495 28.28625,12.63025 C28.0269,15.0575 26.7976,22.12075 26.0414,27.1814 C25.5987,30.14255 23.9951,31.0498 22.18535,29.90125 C20.8126,29.0301 16.093,25.93975 14.85135,24.88335 C14.0049,24.16325 13.41495,23.35575 14.01535,22.53305 C14.1911,22.2927 14.64045,21.8082 14.8903,21.5669 C16.14335,20.3528 15.97425,20.09155 14.459,21.1755 C14.2785,21.3047 13.2316,22.06375 12.80125,22.35065 C11.74675,23.05365 10.7768,23.09165 9.13235,22.53305 C7.78715,22.0761 6.49515,21.72365 5.68005,21.3712 C4.5543,20.88385 4.123,19.2584 5.81305,18.4927 Z" id="Path" fill="#000000" opacity="0.05"></path>
                    <path d="M6.4942,18.61145 C13.6876,15.3957 22.534,11.71065 23.8279,11.1891 C26.9287,9.937 28.06965,10.6799 27.7362,13.09955 C27.4265,15.33965 26.32735,22.27085 25.5569,26.9173 C25.1028,29.65235 23.7766,30.25465 22.0495,29.13745 C20.96745,28.44015 16.61265,25.57115 15.55625,24.7361 C14.73925,24.09105 13.8928,23.34625 14.88175,22.268 C15.21235,21.90795 17.03825,20.1457 18.4034,18.8347 C19.19475,18.07375 18.9126,17.6985 17.95785,18.3521 C16.207,19.55195 13.34275,21.451 12.83165,21.79585 C11.8579,22.45135 10.94305,22.60905 9.35085,22.1084 C8.0959,21.7132 6.8837,21.33035 6.25195,21.0843 C4.84025,20.5371 4.82125,19.3591 6.4942,18.61145 Z" id="Path" fill="#000000" opacity="0.07"></path>
                    <path d="M7.17535,18.73115 C13.81585,15.8099 22.4086,12.24835 23.59515,11.7553 C26.7064,10.4652 27.66115,10.7122 27.1852,13.5698 C26.8432,15.6237 25.8571,22.42285 25.0705,26.6551 C24.60405,29.165 23.55715,29.46235 21.91175,28.3765 C21.1204,27.854 17.12565,25.21205 16.2583,24.5917 C15.46695,24.02645 14.3754,23.34625 15.74435,22.00675 C16.2317,21.52985 19.42465,18.48035 21.9127,16.10725 C22.23855,15.79565 21.8291,15.2836 21.4529,15.53345 C18.0994,17.7574 13.4501,20.84395 12.85825,21.2458 C11.9643,21.85285 11.1055,22.1312 9.5646,21.6885 C8.3999,21.3541 7.26275,20.9551 6.82005,20.8031 C5.1148,20.2179 5.5195,19.4598 7.17535,18.73115 Z" id="Path" fill="#FFFFFF"></path>
                </g>
            </g>
        </g>
    </g>
</svg>