<?xml version="1.0" encoding="UTF-8"?>
<svg width="40px" height="40px" viewBox="0 0 40 40" version="1.1" xmlns="http://www.w3.org/2000/svg" xmlns:xlink="http://www.w3.org/1999/xlink">
    <title>icons8-whatsapp</title>
    <defs>
        <linearGradient x1="23.6440244%" y1="7.98403194%" x2="66.3318985%" y2="98.4031936%" id="linearGradient-1">
            <stop stop-color="#5CD067" offset="0%"></stop>
            <stop stop-color="#29B53F" offset="100%"></stop>
        </linearGradient>
        <path d="M31.0936585,8.61658537 C28.1863415,5.70731707 24.3219512,4.10439024 20.2087805,4.10341463 C11.7170732,4.10341463 4.81073171,11.0068293 4.80682839,19.4926829 C4.80585366,22.4009756 5.6195122,25.2321951 7.16097561,27.6839024 L7.52780488,28.2663415 L5.97170732,33.9453659 L11.7990244,32.417561 L12.3619512,32.7512195 C14.724878,34.1541463 17.435122,34.8956098 20.1980488,34.8965854 L20.2039024,34.8965854 C28.6897561,34.8965854 35.5960976,27.9921951 35.5990248,19.5053659 C35.6,15.3931707 34.0009756,11.5258537 31.0936585,8.61658537 Z" id="path-2"></path>
        <filter x="-3.2%" y="-3.2%" width="106.5%" height="106.5%" filterUnits="objectBoundingBox" id="filter-3">
            <feGaussianBlur stdDeviation="0.5" in="SourceAlpha" result="shadowBlurInner1"></feGaussianBlur>
            <feOffset dx="0" dy="1" in="shadowBlurInner1" result="shadowOffsetInner1"></feOffset>
            <feComposite in="shadowOffsetInner1" in2="SourceAlpha" operator="arithmetic" k2="-1" k3="1" result="shadowInnerInner1"></feComposite>
            <feColorMatrix values="0 0 0 0 0   0 0 0 0 0   0 0 0 0 0  0 0 0 0.142127404 0" type="matrix" in="shadowInnerInner1"></feColorMatrix>
        </filter>
    </defs>
    <g id="Relize-#1" stroke="none" stroke-width="1" fill="none" fill-rule="evenodd">
        <g id="UI-00.-Обратиться-в-поддержку" transform="translate(-28.000000, -445.000000)">
            <g id="Group" transform="translate(16.000000, 362.000000)">
                <g id="icons8-whatsapp" transform="translate(12.000000, 83.000000)">
                    <path d="M20.2037153,0.499999965 C25.2828165,0.501901182 30.0558459,2.48007583 33.6443549,6.07048603 C37.2309455,9.65992836 39.2053159,14.4319129 39.2034161,19.5070901 C39.2010387,24.7438777 37.0685167,29.4923242 33.6267807,32.931478 C30.185576,36.3701009 25.4353948,38.5 20.1962539,38.5 C17.0912844,38.4990294 14.0150359,37.7310392 11.2842772,36.2778707 L11.2842772,36.2778707 L1.69406566,38.792492 C1.44232214,38.8053463 1.28999311,38.7839842 1.18616757,38.6790663 L1.18616757,38.6790663 L3.64147928,28.8143862 C2.04572415,25.9794137 1.20341961,22.7598945 1.20439019,19.4919342 C1.20676666,14.2556288 3.33889326,9.50781209 6.77911542,6.06896692 C10.2193924,2.63006691 14.9679873,0.5 20.2037153,0.499999965 Z" id="Path" stroke-opacity="0.0782615822" stroke="#171B17" fill="#FFFFFF" fill-rule="nonzero"></path>
                    <g id="Path" fill-rule="nonzero">
                        <use fill="url(#linearGradient-1)" xlink:href="#path-2"></use>
                        <use fill="black" fill-opacity="1" filter="url(#filter-3)" xlink:href="#path-2"></use>
                    </g>
                    <path d="M25.2614634,29.1502439 C24.2907317,29.1502439 22.964878,28.902439 20.2985366,27.8517073 C17.3131707,26.6731707 14.3804878,24.115122 12.0409756,20.6478049 L11.9658537,20.537561 C11.3395122,19.7014634 9.88585366,17.5063415 9.88585366,15.1717073 C9.88585366,12.6546341 11.142439,11.315122 11.6790244,10.742439 L11.7619512,10.6536585 C12.502439,9.84292683 13.3746341,9.75609756 13.715122,9.75609756 C14.075122,9.76 14.3804878,9.75609756 14.644878,9.76780488 C15.2829268,9.79317073 16.0097561,9.97756098 16.5336585,11.142439 L16.5336585,11.142439 C16.777561,11.6868293 17.1931707,12.7082927 17.5180488,13.5092683 C17.7258537,14.0234146 17.8946341,14.4409756 17.9463415,14.5521951 C18.2331707,15.1239024 18.2468293,15.6907317 17.9814634,16.2243902 L17.9180488,16.3541463 C17.7931707,16.6097561 17.6634146,16.8741463 17.3873171,17.1960976 L17.1580488,17.4712195 C17,17.6634146 16.8409756,17.8546341 16.6995122,18.0029268 C17.0790244,18.6282927 17.8760976,19.8136585 18.9736585,20.7931707 C20.3336585,22.0039024 21.4985366,22.5102439 22.1239024,22.782439 C22.2478049,22.8360976 22.3512195,22.8819512 22.4331707,22.9209756 C22.8282927,22.462439 23.4790244,21.6809756 23.7034146,21.3463415 C24.4546341,20.2185366 25.5346341,20.6097561 25.8887805,20.7395122 C26.4439024,20.9404878 29.1307317,22.2770732 29.1570732,22.2897561 L29.4058537,22.4117073 C29.8146341,22.6097561 30.1990244,22.7960976 30.4419512,23.2 C30.8273171,23.844878 30.6136585,25.222439 30.2536585,26.2292683 C29.7326829,27.6956098 27.4946341,28.9658537 26.2985366,29.0731707 L26.0780488,29.0965854 C25.8195122,29.1268293 25.5570732,29.1502439 25.2614634,29.1502439 Z M13.8692683,11.7073171 C13.7326829,11.7073171 13.4936585,11.6507317 13.2,11.9707317 L13.1014634,12.0770732 C12.6595122,12.5482927 11.8360976,13.4263415 11.8360976,15.1717073 C11.8360976,16.9697561 13.1297561,18.8370732 13.5258537,19.3668293 C13.5521951,19.4019512 13.595122,19.4653659 13.657561,19.5560976 C15.7795122,22.7004878 18.3921951,25.0019512 21.0146341,26.0360976 C24.3160976,27.3385366 25.1639024,27.24 25.8497561,27.1590244 L26.1209756,27.1297561 C26.715122,27.0760976 28.1912195,26.2019512 28.4146341,25.5746341 C28.6185366,25.0039024 28.6839024,24.5141463 28.6946341,24.2341463 C28.6517073,24.2136585 28.604878,24.1921951 28.555122,24.1687805 L28.2790244,24.0331707 C27.657561,23.7209756 25.5678049,22.7004878 25.2243902,22.5746341 C24.7931707,23.1678049 23.9931707,24.1014634 23.7814634,24.3443902 C23.3843902,24.8 22.6819512,25.2312195 21.6068293,24.6897561 C21.542439,24.657561 21.4546341,24.6204878 21.3453659,24.5726829 C20.6712195,24.2790244 19.2673171,23.6692683 17.6741463,22.2507317 C16.2409756,20.9717073 15.2604878,19.417561 14.9053659,18.8078049 C14.4712195,18.0653659 14.5912195,17.3492683 15.262439,16.6809756 C15.3795122,16.5639024 15.5131707,16.3970732 15.6497561,16.2321951 L15.9053659,15.9258537 C16.0204878,15.7921951 16.062439,15.7053659 16.1658537,15.4956098 L16.2,15.4263415 C16.1102439,15.2273171 15.9287805,14.7834146 15.7102439,14.2429268 C15.395122,13.4653659 14.9921951,12.4721951 14.755122,11.9434146 L14.755122,11.9434146 C14.6917073,11.8029268 14.6439024,11.7336585 14.6204878,11.7043902 C14.6253659,11.7190244 14.5921951,11.72 14.5639024,11.7180488 C14.3473171,11.7073171 14.1102439,11.7073171 13.8692683,11.7073171 Z" id="Shape" fill="#000000" fill-rule="nonzero" opacity="0.05"></path>
                    <path d="M25.257561,28.6673171 C24.4321951,28.6673171 23.155122,28.4526829 20.4780488,27.3970732 C17.5834146,26.2556098 14.7307317,23.7609756 12.4458537,20.3746341 L12.3609756,20.2497561 C11.76,19.4478049 10.3736585,17.36 10.3736585,15.1707317 C10.3736585,12.8468293 11.537561,11.6058537 12.035122,11.075122 L12.1219512,10.9814634 C12.7317073,10.315122 13.44,10.2439024 13.7160976,10.2439024 C14.0839024,10.2468293 14.3668293,10.2439024 14.6243902,10.2556098 C15.1043902,10.275122 15.6556098,10.3765854 16.0897561,11.342439 L16.0897561,11.342439 C16.3326829,11.8829268 16.7443902,12.897561 17.0663415,13.6926829 C17.2858537,14.2341463 17.4614634,14.6702439 17.5073171,14.7629268 C17.5873171,14.9239024 17.8370732,15.4204878 17.5453659,16.0068293 L17.48,16.1395122 C17.3580488,16.3882927 17.2526829,16.6039024 17.0165854,16.8790244 L16.7804878,17.1609756 C16.6117073,17.3658537 16.4429268,17.5697561 16.2965854,17.7160976 C16.0858537,17.9258537 16.0858537,17.9258537 16.1697561,18.0692683 C16.4897561,18.6185366 17.3717073,20.0185366 18.6487805,21.1570732 C20.0663415,22.4204878 21.2790244,22.9463415 21.9297561,23.2292683 C22.0702439,23.2897561 22.182439,23.3395122 22.2653659,23.3814634 C22.5512195,23.5239024 22.5804878,23.4946341 22.6819512,23.3795122 C22.9629268,23.0595122 23.8214634,22.0487805 24.1092683,21.6165854 C24.6497561,20.8068293 25.3473171,21.0604878 25.7229268,21.1960976 C26.2165854,21.3756098 28.6878049,22.5980488 28.9385366,22.7239024 L29.1941463,22.8487805 C29.564878,23.0282927 29.857561,23.1697561 30.0253659,23.4478049 C30.2731707,23.8634146 30.1707317,25.0117073 29.7960976,26.0634146 C29.32,27.4009756 27.2146341,28.4995122 26.2565854,28.5853659 L26.0234146,28.6107317 C25.7960976,28.6380488 25.5570732,28.6673171 25.257561,28.6673171 Z M13.8546341,11.2195122 C13.8292683,11.2195122 13.8039024,11.2195122 13.7785366,11.2195122 C13.6,11.2195122 13.1980488,11.2497561 12.84,11.6409756 L12.7453659,11.742439 C12.2917073,12.2263415 11.3482927,13.2331707 11.3482927,15.1707317 C11.3482927,17.0663415 12.5980488,18.9404878 13.1356098,19.6585366 C13.16,19.6907317 13.1980488,19.7463415 13.2536585,19.8282927 C15.4302439,23.0536585 18.1229268,25.4185366 20.8360976,26.4897561 C24.2556098,27.8380488 25.1726829,27.7297561 25.9063415,27.6439024 L26.1668293,27.6156098 C26.8429268,27.555122 28.5580488,26.6273171 28.875122,25.737561 C29.2,24.8282927 29.2136585,24.0692683 29.1639024,23.9063415 C29.1707317,23.9121951 28.937561,23.8107317 28.7687805,23.7287805 L28.4995122,23.5960976 C27.8917073,23.2907317 25.7619512,22.2487805 25.3892683,22.1131707 C25.0380488,21.9863415 25.0370732,21.9834146 24.9209756,22.1580488 C24.5804878,22.6663415 23.6331707,23.7746341 23.4165854,24.0214634 C22.7902439,24.7385366 22.0663415,24.3717073 21.8273171,24.2517073 C21.7570732,24.2165854 21.6604878,24.1756098 21.5414634,24.1239024 C20.8897561,23.84 19.5346341,23.2507317 18,21.8839024 C16.6185366,20.6526829 15.6712195,19.1492683 15.3278049,18.56 C14.8634146,17.7658537 15.3853659,17.2458537 15.6078049,17.0243902 C15.7346341,16.897561 15.8809756,16.7190244 16.0282927,16.5395122 L16.2770732,16.2409756 C16.4321951,16.0595122 16.497561,15.9268293 16.604878,15.7073171 L16.6731707,15.5678049 C16.7209756,15.4721951 16.7297561,15.3834146 16.6341463,15.1941463 C16.5834146,15.0926829 16.395122,14.6302439 16.1629268,14.0556098 C15.844878,13.2721951 15.44,12.2712195 15.2,11.7395122 L15.2,11.7395122 C14.9765854,11.2429268 14.8458537,11.2370732 14.5834146,11.2273171 C14.3580488,11.2195122 14.1082927,11.2195122 13.8546341,11.2195122 Z" id="Shape" fill="#000000" fill-rule="nonzero" opacity="0.07"></path>
                    <path d="M15.6439024,11.542439 C15.297561,10.7717073 14.9326829,10.7560976 14.6019512,10.742439 C14.3317073,10.7307317 14.0234146,10.7316874 13.715122,10.7316874 C13.4068293,10.7316874 12.9053659,10.8478049 12.4809756,11.3112195 C12.0565854,11.7746341 10.8604878,12.8936585 10.8604878,15.1707317 C10.8604878,17.4478049 12.5190244,19.6487805 12.7502439,19.9570732 C12.9814634,20.2653659 15.9521951,25.0878049 20.6565854,26.9434146 C24.5658537,28.484878 25.3619512,28.1785366 26.2107317,28.1014634 C27.0595122,28.0243902 28.9492683,26.982439 29.3346341,25.9014634 C29.72,24.8204878 29.72,23.8946341 29.604878,23.7014634 C29.4887805,23.5082927 29.1804878,23.3931707 28.7180488,23.1609756 C28.2556098,22.9287805 25.9795122,21.8097561 25.555122,21.6556098 C25.1307317,21.5014634 24.822439,21.4243902 24.5131707,21.8878049 C24.204878,22.3502439 23.3180488,23.3931707 23.0478049,23.7014634 C22.777561,24.0107317 22.5073171,24.0497561 22.044878,23.817561 C21.582439,23.5853659 20.0917073,23.097561 18.3229268,21.5209756 C16.9473171,20.2946341 16.0185366,18.7795122 15.7482927,18.3160976 C15.4780488,17.8536585 15.7190244,17.6029268 15.9512195,17.3717073 C16.1590244,17.1639024 16.4136585,16.8312195 16.6458537,16.5609756 C16.8770732,16.2907317 16.9541463,16.097561 17.1082927,15.7892683 C17.262439,15.48 17.1853659,15.2097561 17.0692683,14.9785366 C16.955122,14.7463415 16.0556098,12.457561 15.6439024,11.542439 Z" id="Path" fill="#FEFEFE"></path>
                </g>
            </g>
        </g>
    </g>
</svg>